<svg xmlns="http://www.w3.org/2000/svg" xmlns:xlink="http://www.w3.org/1999/xlink" viewBox="0 0 142.36 115.22"><defs><style>.cls-1{isolation:isolate;}.cls-2{fill:url(#linear-gradient);}.cls-3{fill:url(#linear-gradient-2);}.cls-4{fill:url(#linear-gradient-3);}.cls-5{fill:url(#linear-gradient-4);}.cls-6,.cls-7,.cls-8{mix-blend-mode:screen;}.cls-6{fill:url(#radial-gradient);}.cls-7{fill:url(#radial-gradient-2);}.cls-8{fill:url(#radial-gradient-3);}.cls-10,.cls-11,.cls-12,.cls-13,.cls-14,.cls-9{mix-blend-mode:multiply;}.cls-9{fill:url(#linear-gradient-5);}.cls-10{fill:url(#linear-gradient-6);}.cls-11{fill:url(#linear-gradient-7);}.cls-12{fill:url(#linear-gradient-8);}.cls-13{fill:url(#linear-gradient-9);}.cls-14{fill:url(#linear-gradient-10);}</style><linearGradient id="linear-gradient" x1="43.15" y1="57.61" x2="142.36" y2="57.61" gradientUnits="userSpaceOnUse"><stop offset="0" stop-color="#318235"/><stop offset="1" stop-color="#83c187"/></linearGradient><linearGradient id="linear-gradient-2" x1="23.14" y1="28.45" x2="124.23" y2="28.45" gradientUnits="userSpaceOnUse"><stop offset="0" stop-color="#83c187"/><stop offset="1" stop-color="#45b54a"/></linearGradient><linearGradient id="linear-gradient-3" x1="0" y1="57.61" x2="142.36" y2="57.61" xlink:href="#linear-gradient-2"/><linearGradient id="linear-gradient-4" x1="23.14" y1="86.77" x2="124.23" y2="86.77" xlink:href="#linear-gradient-2"/><radialGradient id="radial-gradient" cx="56.67" cy="58.81" r="56.9" gradientUnits="userSpaceOnUse"><stop offset="0" stop-color="#fff"/><stop offset="1"/></radialGradient><radialGradient id="radial-gradient-2" cx="66.8" cy="99.57" r="83.7" xlink:href="#radial-gradient"/><radialGradient id="radial-gradient-3" cx="48.6" cy="106.08" r="39.49" xlink:href="#radial-gradient"/><linearGradient id="linear-gradient-5" x1="139.18" y1="-27.5" x2="56.41" y2="69.84" gradientUnits="userSpaceOnUse"><stop offset="0" stop-color="#294ca7"/><stop offset="0.48" stop-color="#96a7d4"/><stop offset="0.84" stop-color="#e1e6f3"/><stop offset="1" stop-color="#fff"/></linearGradient><linearGradient id="linear-gradient-6" x1="134.98" y1="-22.56" x2="61.25" y2="64.16" xlink:href="#linear-gradient-5"/><linearGradient id="linear-gradient-7" x1="156.05" y1="-9.34" x2="59.96" y2="103.67" xlink:href="#linear-gradient-5"/><linearGradient id="linear-gradient-8" x1="151.85" y1="-4.39" x2="64.8" y2="97.99" xlink:href="#linear-gradient-5"/><linearGradient id="linear-gradient-9" x1="104.82" y1="53.48" x2="49.86" y2="118.11" xlink:href="#linear-gradient-5"/><linearGradient id="linear-gradient-10" x1="101.59" y1="57.27" x2="53.57" y2="113.75" xlink:href="#linear-gradient-5"/></defs><title>Asset 1corepay</title><g class="cls-1"><g id="Layer_2" data-name="Layer 2"><g id="Layer_1-2" data-name="Layer 1"><g id="Element"><path class="cls-2" d="M43.15,15.53V99.69a15.51,15.51,0,0,0,23.65,13.2L135,70.81a15.51,15.51,0,0,0,0-26.4L66.8,2.33A15.51,15.51,0,0,0,43.15,15.53Z"/><path class="cls-3" d="M94,19.14H32.45a9.31,9.31,0,0,0-9.31,9.31h0a9.31,9.31,0,0,0,9.31,9.32h91.78Z"/><path class="cls-4" d="M0,57.61H0a9.32,9.32,0,0,0,9.32,9.32h130a15.6,15.6,0,0,0,0-18.64H9.32A9.32,9.32,0,0,0,0,57.61Z"/><path class="cls-5" d="M124.23,77.45H32.45a9.32,9.32,0,0,0,0,18.63H94Z"/><path class="cls-6" d="M32.45,36.61a9.32,9.32,0,0,1-9.29-8.74c0,.2,0,.39,0,.58h0a9.31,9.31,0,0,0,9.31,9.32h91.78l-1.88-1.16Z"/><path class="cls-7" d="M139.27,65.77H9.32A9.31,9.31,0,0,1,0,57c0,.19,0,.39,0,.58H0a9.32,9.32,0,0,0,9.32,9.32h130a15.49,15.49,0,0,0,3.06-9.9A15.38,15.38,0,0,1,139.27,65.77Z"/><path class="cls-8" d="M94,94.93H32.45a9.32,9.32,0,0,1-9.29-8.74c0,.19,0,.38,0,.58a9.31,9.31,0,0,0,9.31,9.31H94l30.2-18.63h-1.88Z"/><polygon class="cls-9" points="124.23 37.77 43.15 48.3 43.15 37.77 124.23 37.77"/><polygon class="cls-10" points="124.23 37.77 43.15 39.62 43.15 37.77 124.23 37.77"/><polygon class="cls-11" points="139.27 66.93 43.15 77.45 43.15 66.93 139.27 66.93"/><polygon class="cls-12" points="139.27 66.93 43.15 68.78 43.15 66.93 139.27 66.93"/><path class="cls-13" d="M45.09,107.24,94,96.08H43.15v3.61A15.4,15.4,0,0,0,45.09,107.24Z"/><polygon class="cls-14" points="94.03 96.08 43.15 96.08 43.15 98.93 94.03 96.08"/></g></g></g></g></svg>